Coordinates
version=1
nRows=22
nColumns=24
inDegrees=yes

Units are S.I. units (second, meters, Newtons, ...)
Angles are in degrees.

endheader
time	pelvis_tilt	pelvis_list	pelvis_rotation	pelvis_tx	pelvis_ty	pelvis_tz	hip_flexion_r	hip_adduction_r	hip_rotation_r	knee_angle_r	ankle_angle_r	subtalar_angle_r	mtp_angle_r	hip_flexion_l	hip_adduction_l	hip_rotation_l	knee_angle_l	ankle_angle_l	subtalar_angle_l	mtp_angle_l	lumbar_extension	lumbar_bending	lumbar_rotation
      3.78000000	     -9.35834589	     -6.96355861	    -15.03901818	     -0.21489575	      0.67847099	     -0.25049569	    -19.65706643	      5.58920795	     11.29647904	     -8.82659516	     -2.24480333	      7.23052530	      0.00000000	     29.72017079	     -8.16253934	      9.41870025	     -1.29887363	      2.03368529	    -26.29850711	      0.00000000	    -14.16790581	      3.40023817	      9.39759016
      3.79000000	     -8.53219043	     -5.33682865	    -14.59995645	     -0.19609862	      0.67696932	     -0.25174539	    -19.42091881	      3.54592398	      9.50381873	    -12.01348309	     -3.43095106	      8.96415076	      0.00000000	     30.27171006	     -5.48268215	      9.16106633	     -5.04097772	      1.61450016	    -26.56886234	      0.00000000	    -14.03233651	      1.39075634	      8.43614421
      3.80000000	     -7.84700241	     -3.71422168	    -13.95629122	     -0.17751039	      0.67538496	     -0.25333637	    -18.74929175	      1.66446256	      7.93849278	    -15.65239187	     -5.07567901	     10.19067866	      0.00000000	     31.41102017	     -2.67438431	      7.99702596	     -9.78159945	      1.97263993	    -25.25285167	      0.00000000	    -13.84948805	     -0.52744447	      7.30364277
      3.81000000	     -7.70576250	     -2.55753583	    -13.28251135	     -0.15958751	      0.67328581	     -0.25449651	    -17.29265655	      0.58477153	      7.19725983	    -19.72020627	     -7.38772836	     10.36529695	      0.00000000	     33.57534025	     -0.66650503	      5.06778155	    -15.55514469	      4.25601554	    -20.78341162	      0.00000000	    -13.26407091	     -1.84167811	      6.46758613
      3.82000000	     -7.66965252	     -1.69181275	    -12.57810017	     -0.14198269	      0.67102932	     -0.25536899	    -15.47326481	     -0.05112481	      6.83324409	    -24.18576779	     -9.69210250	     10.41141337	      0.00000000	     35.57406868	      0.77540490	      2.53338829	    -21.05002211	      6.06422623	    -17.13267969	      0.00000000	    -12.69520789	     -2.84523031	      5.59714934
      3.83000000	     -7.58027341	     -0.95369690	    -12.02879770	     -0.12468849	      0.66902952	     -0.25596170	    -13.38033663	     -0.53933491	      6.72460883	    -29.01530041	    -11.77688726	     10.59407288	      0.00000000	     36.95400061	      1.85364392	      0.45623573	    -25.70899088	      7.62208727	    -14.45907541	      0.00000000	    -12.28153217	     -3.73519889	      4.92064416
      3.84000000	     -7.58525190	     -0.19079512	    -11.66385116	     -0.10785157	      0.66724451	     -0.25634424	    -10.81600556	     -1.02401156	      6.70090445	    -34.16298482	    -13.45582054	     10.68548289	      0.00000000	     37.81341574	      2.76548716	     -1.22760712	    -29.34924388	      9.21320155	    -12.47670329	      0.00000000	    -11.80419146	     -4.64905390	      4.52430405
      3.85000000	     -7.58721459	      0.72640497	    -11.45657121	     -0.09143329	      0.66593281	     -0.25671890	     -7.94492696	     -1.71149456	      6.71389382	    -39.44502145	    -14.49448220	     10.89549449	      0.00000000	     38.01872722	      3.74108400	     -2.69167013	    -31.84357457	     10.98209703	    -10.97478192	      0.00000000	    -11.35520242	     -5.70341405	      4.22310229
      3.86000000	     -7.66828328	      1.77013912	    -11.31657517	     -0.07544238	      0.66510316	     -0.25714920	     -4.78922082	     -2.52979082	      6.78964451	    -44.66909328	    -14.79982021	     11.09694891	      0.00000000	     37.73989985	      4.81119689	     -3.99690166	    -33.30987882	     12.96272883	     -9.63437018	      0.00000000	    -10.82839302	     -6.83605239	      3.91708750
      3.87000000	     -7.83270846	      2.89383133	    -11.20785494	     -0.05979810	      0.66485894	     -0.25765902	     -1.43591436	     -3.42162510	      6.97421500	    -49.66756808	    -14.30845086	     11.31509366	      0.00000000	     37.04133582	      5.97649508	     -5.15266098	    -33.84751551	     15.00858082	     -8.37580629	      0.00000000	    -10.20949202	     -7.98035833	      3.54314075
      3.88000000	     -8.23876576	      4.02054472	    -11.04848547	     -0.04439800	      0.66504309	     -0.25830426	      2.20531978	     -4.25710964	      7.20520428	    -54.32433029	    -13.07723673	     11.33108058	      0.00000000	     36.16957689	      7.21451787	     -5.98409852	    -33.61362082	     16.88716473	     -7.26160161	      0.00000000	     -9.28604968	     -9.00875730	      3.05765607
      3.89000000	     -8.19984401	      5.08398811	    -10.88358132	     -0.02904545	      0.66652327	     -0.25906279	      5.27858765	     -5.11529468	      7.55816500	    -58.44495113	    -10.96916097	     11.53027653	      0.00000000	     34.37383646	      8.61616232	     -6.44876176	    -32.59705927	     18.51671828	     -6.27145085	      0.00000000	     -8.96136910	     -9.99441090	      2.46297820
      3.90000000	     -8.28214480	      6.03909272	    -10.74836048	     -0.01372467	      0.66850027	     -0.25993336	      8.44490501	     -5.83109069	      7.96846112	    -62.09358209	     -8.33395835	     11.41290612	      0.00000000	     32.35316496	     10.03921639	     -6.35615750	    -30.98422324	     19.62562506	     -5.75019701	      0.00000000	     -8.45719097	    -10.76317377	      2.05798879
      3.91000000	     -8.33280597	      6.75930302	    -10.57603062	      0.00160684	      0.67106861	     -0.26089202	     11.44247526	     -6.26206488	      8.38691755	    -65.17685876	     -5.31847775	     10.98078296	      0.00000000	     29.98531735	     11.38724177	     -5.64986460	    -28.90868261	     20.18740187	     -5.74300291	      0.00000000	     -8.02959603	    -11.20916149	      1.54683817
      3.92000000	     -8.33361607	      7.24045010	    -10.41132314	      0.01695962	      0.67409846	     -0.26194188	     14.26684248	     -6.41973787	      8.77296110	    -67.70554251	     -2.16719522	     10.14786377	      0.00000000	     27.27551697	     12.62701978	     -4.24092798	    -26.42508106	     20.10179645	     -6.47890850	      0.00000000	     -7.70565221	    -11.33875725	      1.07963600
      3.93000000	     -8.28253105	      7.43465575	    -10.23931981	      0.03230919	      0.67746348	     -0.26306496	     16.89552998	     -6.25166449	      9.04228897	    -69.67096462	      0.83941905	      8.75090999	      0.00000000	     24.23177747	     13.67186640	     -2.00579771	    -23.59212553	     19.31318240	     -8.15760755	      0.00000000	     -7.51540507	    -11.10802807	      0.68610571
      3.94000000	     -8.09438320	      7.34027270	    -10.07142208	      0.04758923	      0.68112347	     -0.26418308	     19.22226499	     -5.75283310	      9.23175375	    -71.08816353	      3.65999121	      7.06452074	      0.00000000	     20.77341277	     14.45250672	      1.14277956	    -20.44236398	     17.73216909	    -10.89799849	      0.00000000	     -7.61259682	    -10.56468432	      0.31991409
      3.95000000	     -7.88179770	      7.00188487	     -9.88660971	      0.06281898	      0.68474559	     -0.26523349	     21.39353017	     -4.98437591	      9.20083553	    -71.99723800	      5.97972059	      4.74681679	      0.00000000	     17.05808032	     14.88248738	      5.02713785	    -17.00995705	     15.31064373	    -14.88417489	      0.00000000	     -7.81598399	     -9.75287266	     -0.04155039
      3.96000000	     -7.57744563	      6.31647462	     -9.76231948	      0.07801022	      0.68839172	     -0.26600983	     23.25226635	     -3.78599169	      9.08658302	    -72.33415219	      7.92947337	      2.26460253	      0.00000000	     13.01177760	     14.73957616	      9.58813260	    -13.29634488	     11.75077821	    -20.38506834	      0.00000000	     -8.20599737	     -8.58286870	     -0.19694509
      3.97000000	     -7.38714919	      5.44521808	     -9.59083637	      0.09271963	      0.69157994	     -0.26629715	     25.14327442	     -2.28448507	      8.79256754	    -72.24758519	      9.26547763	     -0.66588344	      0.00000000	      9.25624522	     14.04293681	     13.66656829	     -9.80816550	      7.77632805	    -25.94261204	      0.00000000	     -8.61700909	     -7.32018580	     -0.41753228
      3.98000000	     -7.58007894	      4.41004630	     -8.80901760	      0.10694839	      0.69408479	     -0.26687460	     27.23200055	     -0.78958348	      7.80047115	    -71.63747494	     10.25407375	     -3.61459655	      0.00000000	      6.42092617	     12.96608142	     16.54164782	     -7.17160811	      4.93542843	    -29.24002322	      0.00000000	     -8.76680729	     -5.85360864	     -1.14702733
      3.99000000	     -7.77610611	      3.47179570	     -8.09301363	      0.12084845	      0.69621896	     -0.26722202	     29.29551721	      0.57263260	      6.82571789	    -70.58636461	     10.82948036	     -6.50573082	      0.00000000	      3.97358514	     11.89238087	     17.96757270	     -4.95173901	      2.73438208	    -31.20378299	      0.00000000	     -8.94869411	     -4.57419292	     -1.82464923
